<?xml version="1.0" encoding="iso-8859-1"?>
<!-- Generator: Adobe Illustrator 19.0.0, SVG Export Plug-In . SVG Version: 6.00 Build 0)  -->
<svg version="1.1" id="Capa_1" xmlns="http://www.w3.org/2000/svg" xmlns:xlink="http://www.w3.org/1999/xlink" x="0px" y="0px"
	 viewBox="0 0 496 496" style="enable-background:new 0 0 496 496;" xml:space="preserve">
<circle style="fill:#FEA82F;" cx="136" cy="360" r="128"/>
<path style="fill:#ECECEC;" d="M368,8L368,8c-66.272,0-120,53.728-120,120v240c0,66.272,53.728,120,120,120l0,0
	c66.272,0,120-53.728,120-120V128C488,61.728,434.272,8,368,8z"/>
<rect x="312" y="192" style="fill:#FB5968;" width="112" height="176"/>
<path style="fill:#B6C1CE;" d="M368,40L368,40c48.6,0,88,39.4,88,88l0,0c0,48.6-39.4,88-88,88l0,0c-48.6,0-88-39.4-88-88l0,0
	C280,79.4,319.4,40,368,40z"/>
<path style="fill:#8C95A4;" d="M368,200c-45.904,0-83.552-35.152-87.6-80c-0.24,2.64-0.4,5.296-0.4,8c0,48.6,39.4,88,88,88
	s88-39.4,88-88c0-2.704-0.168-5.36-0.4-8C451.552,164.848,413.904,200,368,200z"/>
<path style="fill:#AFB8C9;" d="M368,352c-47.048,0-88.056,25.456-110.296,63.28C276.056,458.04,318.52,488,368,488
	s91.944-29.96,110.296-72.72C456.056,377.456,415.048,352,368,352z"/>
<path d="M368,0c-70.576,0-128,57.424-128,128v144.48C214.392,242.152,176.368,224,136,224C61.008,224,0,285.008,0,360
	s61.008,136,136,136c49.496,0,94.488-26.776,118.416-69.224C275.752,467.84,318.616,496,368,496c70.576,0,128-57.424,128-128V128
	C496,57.424,438.576,0,368,0z M256,128c0-61.76,50.24-112,112-112s112,50.24,112,112v240c0,11.704-1.816,22.984-5.168,33.6
	c-11.104-16.864-25.816-30.608-42.832-40.44V328h16v-16h-16v-16h16v-16h-16v-16h16v-16h-16v-48.648
	c19.584-17.584,32-43.016,32-71.352c0-52.936-43.064-96-96-96s-96,43.064-96,96c0,28.336,12.416,53.76,32,71.352V248h-16v16h16v16
	h-16v16h16v16h-16v16h16v33.16c-17.024,9.824-31.728,23.576-42.832,40.44C257.816,390.984,256,379.704,256,368V128z M368,208
	c-44.112,0-80-35.888-80-80s35.888-80,80-80s80,35.888,80,80S412.112,208,368,208z M368,224c17.496,0,33.864-4.784,48-12.992V248
	h-96v-36.992C334.136,219.216,350.504,224,368,224z M416,264v16h-96v-16H416z M416,296v16h-96v-16H416z M416,328v25.368
	c-14.992-6.056-31.224-9.368-48-9.368s-33.008,3.312-48,9.368V328H416z M240,300.096v61.312c-8.4,2.84-18.936,5.72-31.752,8.192
	c-0.136-3.072-0.248-6.216-0.248-9.6c0-51.976,12.88-72.656,18.272-79.04C231.416,286.816,236.024,293.216,240,300.096z M128,288
	v87.864c-18.352-0.328-34.504-1.68-48.368-3.648C79.848,368.328,80,364.304,80,360c0-57.368-14.784-81.432-22.792-90.288
	C76.424,252.92,100.984,242.2,128,240.408V272h16v-31.728c26.392,1.776,51.264,12.288,70.872,29.352
	C206.888,278.4,192,302.432,192,360c0,4.312,0.152,8.344,0.368,12.248c-13.92,1.96-30.032,3.272-48.368,3.584V288H128z
	 M45.848,281.064C51.16,287.48,64,308.336,64,360c0,3.36-0.112,6.488-0.248,9.552c-24.936-4.832-40.624-11.12-47.512-14.336
	C17.368,326.864,28.312,301.056,45.848,281.064z M39.784,431.408c-12.448-16.728-20.72-36.72-23.064-58.512
	c9.568,3.856,24.664,8.816,45.56,12.728C57.592,418.584,44.464,428.8,39.784,431.408z M50.16,443.68
	c9.04-6.088,22.864-20.896,27.896-55.456c14.384,1.992,31.096,3.32,49.952,3.64v87.728C97.568,477.576,70.216,464.256,50.16,443.68z
	 M144,479.704v-87.872c18.824-0.32,35.488-1.64,49.944-3.648c5.048,34.752,18.984,49.544,28.024,55.584
	C201.592,464.672,173.96,477.72,144,479.704z M232.392,431.464c-4.736-2.584-17.96-12.76-22.672-45.848
	c12.04-2.264,22.304-4.888,30.792-7.536c0.8,10.152,2.728,19.976,5.76,29.328C242.544,416.072,237.848,424.104,232.392,431.464z
	 M368,480c-43.136,0-80.584-24.552-99.288-60.376l0.208,0.104C288.392,382.888,326.36,360,368,360s79.608,22.888,99.088,59.736
	l0.208-0.104C448.584,455.448,411.136,480,368,480z"/>
<g>
</g>
<g>
</g>
<g>
</g>
<g>
</g>
<g>
</g>
<g>
</g>
<g>
</g>
<g>
</g>
<g>
</g>
<g>
</g>
<g>
</g>
<g>
</g>
<g>
</g>
<g>
</g>
<g>
</g>
</svg>
